# xmcd CD database file
#
# Track frame offsets:
#	150
#	13313
#	30110
#	42200
#	57320
#	69423
#	83589
#	101897
#	111522
#	127696
#	139035
#	152096
#	168112
#
# Disc length: 2526 seconds
#
# Revision: 0
# Processed by: cddbd v1.5.2PL0 Copyright (c) Steve Scherf et al.
# Submitted via: CDex 1.51
#
DISCID=9e09dc0d
DTITLE=Emmylou Harris - Light Of The Stable
DYEAR=1979
DGENRE=Country
TTITLE0=Christmas Time's A-Coming
TTITLE1=O Little Town Of Bethlehem
TTITLE2=Away In A Manger
TTITLE3=Angel Eyes
TTITLE4=The First Noel
TTITLE5=Beautiful Star Of Bethlehem
TTITLE6=Little Drummer Boy
TTITLE7=Golden Cradle
TTITLE8=Silent Night
TTITLE9=Light Of The Stable
TTITLE10=There's A Light
TTITLE11=Cherry Tree Carol
TTITLE12=Man Is An Island
EXTD=YEAR: 1979
EXTT0=
EXTT1=
EXTT2=
EXTT3=
EXTT4=
EXTT5=
EXTT6=
EXTT7=
EXTT8=
EXTT9=
EXTT10=
EXTT11=
EXTT12=
PLAYORDER=
